<?xml version="1.0" encoding="UTF-8"?>
<svg id="Layer_1" data-name="Layer 1" xmlns="http://www.w3.org/2000/svg" viewBox="0 0 649.53 152.92">
  <g>
    <path d="m155.76,44.63c0,2.04-.31,3.99-.92,5.82-.61,1.84-1.5,3.52-2.67,5.04-1.17,1.52-2.58,2.83-4.25,3.94-1.66,1.11-3.55,1.96-5.65,2.54l14.01,24h-8.23l-13.49-23.21h-11.91v23.21h-7.53V26.94h21.11c3.09,0,5.85.47,8.28,1.4,2.42.94,4.47,2.19,6.13,3.77,1.66,1.58,2.93,3.45,3.81,5.61.88,2.16,1.31,4.47,1.31,6.92Zm-7.53,0c0-3.27-1.02-5.87-3.07-7.79-2.04-1.93-5.02-2.89-8.93-2.89h-13.58v21.81h13.05c3.91,0,6.98-1.01,9.2-3.02,2.22-2.01,3.33-4.71,3.33-8.1Z" style="fill: #1c75bc; stroke-width: 0px;"/>
    <path d="m169.86,68.11c.47,4.15,1.84,7.31,4.12,9.5,2.28,2.19,5.55,3.28,9.81,3.28,1.81,0,3.71-.17,5.69-.53,1.98-.35,3.82-.93,5.52-1.75l1.66,5.43c-3.68,1.87-8.2,2.8-13.58,2.8-6.89,0-12.03-1.98-15.42-5.96-3.39-3.97-5.08-9.34-5.08-16.12,0-3.09.35-5.98,1.05-8.67.7-2.69,1.82-5.01,3.37-6.96,1.55-1.96,3.53-3.5,5.96-4.64,2.42-1.14,5.39-1.71,8.89-1.71,5.78,0,10.06,1.62,12.83,4.86,2.77,3.24,4.16,7.58,4.16,13.01,0,1.52-.07,2.86-.22,4.03-.15,1.17-.37,2.31-.66,3.42h-28.12Zm12-19.71c-2.1,0-3.88.37-5.34,1.09-1.46.73-2.67,1.72-3.64,2.98-.96,1.26-1.71,2.76-2.23,4.51-.53,1.75-.85,3.65-.96,5.69h22.33v-2.01c0-3.85-.77-6.86-2.32-9.02-1.55-2.16-4.16-3.24-7.84-3.24Z" style="fill: #1c75bc; stroke-width: 0px;"/>
    <path d="m216.81,85.97h-7.36v-42.3h6.13l1.23,6.31c.53-.76,1.25-1.56,2.19-2.41.93-.85,2.01-1.62,3.24-2.32s2.61-1.28,4.16-1.75c1.55-.47,3.2-.7,4.95-.7,4.55,0,8.12,1.5,10.69,4.51,2.57,3.01,3.85,7.11,3.85,12.31v26.36h-7.18v-26.36c0-3.15-.76-5.63-2.28-7.44-1.52-1.81-3.65-2.72-6.39-2.72s-5.33.64-7.58,1.93c-2.25,1.29-4.13,2.95-5.65,4.99v29.6Z" style="fill: #1c75bc; stroke-width: 0px;"/>
    <path d="m263.23,68.11c.47,4.15,1.84,7.31,4.12,9.5,2.28,2.19,5.55,3.28,9.81,3.28,1.81,0,3.71-.17,5.69-.53,1.98-.35,3.82-.93,5.52-1.75l1.67,5.43c-3.68,1.87-8.21,2.8-13.58,2.8-6.89,0-12.03-1.98-15.42-5.96-3.39-3.97-5.08-9.34-5.08-16.12,0-3.09.35-5.98,1.05-8.67.7-2.69,1.82-5.01,3.37-6.96,1.55-1.96,3.53-3.5,5.96-4.64,2.42-1.14,5.39-1.71,8.89-1.71,5.78,0,10.06,1.62,12.83,4.86,2.77,3.24,4.16,7.58,4.16,13.01,0,1.52-.07,2.86-.22,4.03-.15,1.17-.37,2.31-.66,3.42h-28.12Zm12-19.71c-2.1,0-3.88.37-5.34,1.09-1.46.73-2.67,1.72-3.64,2.98-.96,1.26-1.71,2.76-2.23,4.51-.53,1.75-.85,3.65-.96,5.69h22.33v-2.01c0-3.85-.77-6.86-2.32-9.02-1.55-2.16-4.16-3.24-7.84-3.24Z" style="fill: #1c75bc; stroke-width: 0px;"/>
    <path d="m336.89,66.79c.58,1.93,1.08,3.84,1.49,5.74.41,1.9.85,4.1,1.31,6.61h.18c.23-2.63.5-5.21.79-7.75.29-2.54.64-4.66,1.05-6.35l4.91-21.37h7.27l-10.07,42.3h-7.27l-6.83-21.46c-.82-2.45-1.48-4.8-1.97-7.05-.5-2.25-.98-4.69-1.45-7.31h-.17c-.47,2.63-.95,5.07-1.45,7.31-.5,2.25-1.15,4.6-1.97,7.05l-6.83,21.46h-7.27l-10.07-42.3h7.27l4.91,21.37c.41,1.69.76,3.81,1.05,6.35.29,2.54.55,5.12.79,7.75h.17c.47-2.51.91-4.71,1.31-6.61.41-1.9.9-3.81,1.49-5.74l7.18-23.12h7.01l7.18,23.12Z" style="fill: #1c75bc; stroke-width: 0px;"/>
    <path d="m370.34,85.97h-7.36V26.94h7.36v59.03Z" style="fill: #1c75bc; stroke-width: 0px;"/>
    <path d="m408,58.3c0-3.33-.89-5.75-2.67-7.27-1.78-1.52-4.13-2.28-7.05-2.28-2.51,0-4.86.26-7.05.79-2.19.53-4.22,1.23-6.09,2.1l-1.66-5.17c1.58-.93,3.68-1.78,6.31-2.54,2.63-.76,5.55-1.14,8.76-1.14,5.61,0,9.74,1.42,12.39,4.25,2.66,2.83,3.99,6.61,3.99,11.34v27.59h-5.52l-1.4-7.18c-.64,1.05-1.33,2.06-2.06,3.02-.73.96-1.65,1.81-2.76,2.54-1.11.73-2.42,1.33-3.94,1.79-1.52.47-3.36.7-5.52.7-1.81,0-3.5-.28-5.08-.83-1.58-.55-2.96-1.37-4.16-2.45-1.2-1.08-2.13-2.41-2.8-3.99-.67-1.58-1.01-3.42-1.01-5.52,0-4.85,1.65-8.45,4.95-10.82,3.3-2.36,7.84-3.55,13.62-3.55h8.76v-1.4Zm0,6.83h-8.85c-3.68,0-6.48.79-8.41,2.37-1.93,1.58-2.89,3.77-2.89,6.57,0,2.16.67,3.87,2.01,5.12,1.34,1.26,3.07,1.88,5.17,1.88,1.93,0,3.68-.36,5.26-1.09,1.58-.73,2.93-1.69,4.07-2.89,1.14-1.2,2.03-2.54,2.67-4.03.64-1.49.96-2.99.96-4.51v-3.42Z" style="fill: #1c75bc; stroke-width: 0px;"/>
    <path d="m427.97,26.94h7.36v23.04c.53-.76,1.25-1.56,2.19-2.41.93-.85,2.01-1.62,3.24-2.32,1.23-.7,2.6-1.28,4.12-1.75,1.52-.47,3.15-.7,4.91-.7,2.86,0,5.34.61,7.44,1.84,2.1,1.23,3.82,2.85,5.17,4.86,1.34,2.01,2.33,4.29,2.98,6.83.64,2.54.96,5.12.96,7.75,0,7.36-1.61,12.99-4.82,16.9-3.21,3.91-7.45,5.87-12.7,5.87-1.52,0-2.98-.22-4.38-.66-1.4-.44-2.7-1.02-3.9-1.75-1.2-.73-2.23-1.59-3.11-2.58-.88-.99-1.58-2.01-2.1-3.07l-1.4,7.18h-5.96V26.94Zm7.36,38.28c0,2.28.35,4.33,1.05,6.17.7,1.84,1.62,3.42,2.76,4.73,1.14,1.31,2.45,2.32,3.94,3.02,1.49.7,3.02,1.05,4.6,1.05s2.98-.28,4.38-.83c1.4-.55,2.63-1.47,3.68-2.76,1.05-1.28,1.88-2.95,2.5-4.99.61-2.04.92-4.55.92-7.53,0-4.85-.98-8.5-2.93-10.95-1.96-2.45-4.57-3.68-7.84-3.68-2.57,0-5.01.66-7.31,1.97-2.31,1.31-4.22,2.96-5.74,4.95v8.85Z" style="fill: #1c75bc; stroke-width: 0px;"/>
    <path d="m474.04,64.78c0-3.09.39-5.98,1.18-8.67.79-2.69,2-5.01,3.64-6.96,1.64-1.96,3.72-3.5,6.23-4.64,2.52-1.14,5.5-1.71,8.95-1.71s6.44.57,8.95,1.71c2.52,1.14,4.59,2.69,6.23,4.64,1.64,1.96,2.85,4.28,3.64,6.96.79,2.69,1.18,5.58,1.18,8.67s-.4,5.99-1.18,8.67c-.79,2.69-2,5.02-3.64,7.01-1.64,1.99-3.72,3.55-6.23,4.69-2.52,1.14-5.5,1.71-8.95,1.71s-6.44-.57-8.95-1.71c-2.52-1.14-4.59-2.7-6.23-4.69-1.64-1.98-2.85-4.32-3.64-7.01-.79-2.69-1.18-5.58-1.18-8.67Zm7.36,0c0,2.28.25,4.41.74,6.39.49,1.99,1.25,3.69,2.27,5.12,1.02,1.43,2.33,2.56,3.93,3.37,1.6.82,3.51,1.23,5.72,1.23s4.12-.41,5.72-1.23c1.6-.82,2.91-1.94,3.93-3.37,1.02-1.43,1.78-3.14,2.27-5.12.49-1.98.74-4.12.74-6.39s-.25-4.39-.74-6.35c-.5-1.96-1.25-3.65-2.27-5.08-1.02-1.43-2.33-2.55-3.93-3.37-1.6-.82-3.5-1.23-5.72-1.23s-4.12.41-5.72,1.23c-1.6.82-2.91,1.94-3.93,3.37-1.02,1.43-1.78,3.12-2.27,5.08-.5,1.96-.74,4.07-.74,6.35Z" style="fill: #1c75bc; stroke-width: 0px;"/>
    <path d="m552.61,43.67h7.36v42.3h-5.96l-1.4-7.18c-.53.88-1.23,1.79-2.1,2.76-.88.96-1.93,1.84-3.15,2.63-1.23.79-2.64,1.43-4.25,1.93-1.61.5-3.4.74-5.39.74s-3.9-.31-5.56-.92-3.1-1.61-4.29-2.98c-1.2-1.37-2.13-3.12-2.8-5.26-.67-2.13-1.01-4.69-1.01-7.66v-26.36h7.18v26.36c0,3.27.71,5.81,2.15,7.62,1.43,1.81,3.31,2.71,5.65,2.71,3.15,0,5.82-.82,8.01-2.45,2.19-1.63,4.04-3.53,5.56-5.69v-28.55Z" style="fill: #1c75bc; stroke-width: 0px;"/>
    <path d="m580.46,50.85c.53-.93,1.15-1.87,1.88-2.8.73-.93,1.58-1.78,2.54-2.54.96-.76,2.04-1.39,3.24-1.88,1.2-.5,2.55-.77,4.07-.83.99-.06,1.84-.01,2.54.13.7.15,1.28.31,1.75.48.58.23,1.05.5,1.4.79l-2.19,7.36c-1.17-1.17-2.77-1.75-4.82-1.75-4.79,0-8.26,2.36-10.42,7.09v29.08h-7.36v-42.3h5.96l1.4,7.18Z" style="fill: #1c75bc; stroke-width: 0px;"/>
  </g>
  <path d="m83.76,0H12C5.4,0,0,5.4,0,12v96c0,6.6,5.4,12,12,12h71.76c6.6,0,12-5.4,12-12V12c0-6.6-5.4-12-12-12Zm-6,64.76h-.02c-.45,13.54-11.61,24.43-25.26,24.43s-24.62-10.7-25.25-24.08h-.03v-13.88h0c.06-11.34,9.3-20.54,20.65-20.54s20.21,8.85,20.62,19.89h.04v13.88h-.03c-.35,8.5-7.36,15.31-15.95,15.31s-15.59-6.81-15.95-15.31h-.03v-13.88h.03c.34-5.93,5.25-10.66,11.27-10.66s10.93,4.73,11.27,10.66h.03v13.88h-.03c-.28,3.43-3.15,6.13-6.65,6.13s-6.37-2.7-6.65-6.13h-.03v-13.22h4v12.68c0,1.48,1.2,2.68,2.68,2.68s2.68-1.2,2.68-2.68v-12.69c0-4.03-3.28-7.3-7.3-7.3s-7.3,3.28-7.3,7.3v12.57c0,6.61,5.37,11.98,11.98,11.98s11.98-5.37,11.98-11.98v-12.44c0-9.18-7.47-16.66-16.66-16.66s-16.66,7.47-16.66,16.66v12.56c0,11.73,9.55,21.28,21.28,21.28s21.28-9.55,21.28-21.28h0v-12.33h0c0-14.27-11.61-25.88-25.88-25.88s-25.88,11.61-25.88,25.88v12.19c0,16.84,13.7,30.54,30.54,30.54,6.53,0,18.27-2.02,20.87-9.59l3.78,1.3c-3.11,9.08-15.23,12.3-24.65,12.3-18.6,0-33.8-14.78-34.51-33.2h-.03v-13.88h0c.19-16.32,13.51-29.53,29.87-29.53s29.49,13.03,29.86,29.19h.02v13.88Z" style="fill: #1c75bc; stroke-width: 0px;"/>
  <path d="m8.66,52.46v.35c0-.12,0-.23,0-.35h0Z" style="stroke-width: 0px;"/>
  <path d="m8.66,66.34h.03c-.02-.45-.03-.89-.03-1.34v1.34Z" style="stroke-width: 0px;"/>
</svg>